<svg xmlns="http://www.w3.org/2000/svg" xmlns:xlink="http://www.w3.org/1999/xlink" xmlns:inkscape="http://www.inkscape.org/namespaces/inkscape" version="1.1" width="1200" height="1200" viewBox="0 0 1200 1200">
<defs>
<clipPath id="clip_1">
<path transform="matrix(1,0,0,-1,0,1200)" d="M0 1200H1200V0H0Z"/>
</clipPath>
</defs>
<g inkscape:groupmode="layer" inkscape:label="Layer 1">
<g clip-path="url(#clip_1)">
<path transform="matrix(1,0,0,-1,949.3479,600)" d="M0 0C0-199.211-161.492-360.703-360.703-360.703-559.914-360.703-721.407-199.211-721.407 0-721.407 199.211-559.914 360.703-360.703 360.703-161.492 360.703 0 199.211 0 0" fill="#414447"/>
<path transform="matrix(1,0,0,-1,833.8521,763.06838)" d="M0 0-131.56 .002C-132.259 .002-132.88 .157-133.501 .546L-189.697 32.756C-190.706 33.377-191.404 34.308-191.559 35.473-191.714 36.637-191.404 37.8-190.628 38.655L-124.965 113.708C-124.886 113.787-124.81 113.787-124.81 113.863-124.81 113.863-124.81 113.942-124.731 114.019L-124.497 114.252C-123.721 115.107-122.635 115.572-121.547 115.572-120.693 115.572-119.917 115.339-119.141 114.796L2.325 20.957C3.256 20.258 3.8 19.095 3.8 17.851V3.881H3.881C3.881 1.709 2.174 0 0 0M-198.073 52.243C-217.166 63.416-229.119 84.062-229.119 106.184V106.178 244.487C-229.119 248.989-227.023 253.181-223.454 255.974-218.255 260.011-210.337 259.856-205.214 255.43-202.653 253.179-200.867 249.997-200.325 246.505L-185.656 143.667C-185.346 141.726-183.715 140.33-181.853 140.33H-181.309C-179.213 140.64-177.738 142.581-178.048 144.753L-192.717 247.672C-193.572 252.95-196.133 257.763-200.168 261.255-206.3 266.533-214.915 267.775-222.287 265.292L-226.789 379.387C-226.945 382.648-225.78 385.83-223.452 388.157-221.9 389.788-219.96 390.874-217.942 391.418-213.719 392.833-210.026 391.026-210.026 391.026-206.223 389.317-203.352 385.825-202.729 381.48-202.03 376.046-201.332 370.847-200.557 365.724L-199.392 356.104C-191.397 302.862-182.86 268.553-174.477 235.179-167.957 209.254-161.283 182.401-154.995 147.088-153.055 135.989-147.001 126.054-138.153 119.146L-133.651 115.653-192.096 48.827ZM7.063 27.09V27.09L-114.485 121.001C-118.521 124.107-123.876 124.028-127.989 121.312L-133.267 125.425C-140.641 131.09-145.608 139.318-147.237 148.554-153.525 184.18-160.276 211.111-166.795 237.191-176.341 275.3-186.198 314.652-195.047 382.488-196.212 391.802-203.896 398.864-213.053 399.64H-213.211C-213.676 399.64-214.142 399.795-214.686 399.795-220.119 399.795-225.163 397.623-228.889 393.742-232.616 389.784-234.554 384.661-234.399 379.228L-229.742 260.863C-234.321 256.671-236.882 250.773-236.882 244.564V106.255C-236.882 81.34-223.454 58.133-201.8 45.713L-197.066 42.996C-198.929 40.514-199.704 37.331-199.162 34.226-198.618 30.81-196.524 27.783-193.497 26.077L-137.302-6.134C-135.516-7.143-133.575-7.685-131.48-7.685L-.001-7.682C6.442-7.682 11.641-2.482 11.641 3.96V17.931C11.641 21.423 9.934 24.839 7.063 27.09" fill="#f9f4e5"/>
<path transform="matrix(1,0,0,-1,637.4568,707.9251)" d="M0 0 3.581-2.047 57.883 60.041 56.188 61.355C46.596 68.846 40.175 79.502 38.1 91.367 31.643 127.631 24.75 155.038 18.67 179.219 10.776 210.639 1.83 246.251-6.31 300.463L-6.323 300.558-7.481 310.13C-8.159 314.602-8.81 319.325-9.657 325.909-10.087 328.913-12.089 331.517-15.004 332.827L-15.103 332.873C-15.105 332.873-17.684 334.036-20.482 333.098L-20.674 333.04C-22.199 332.629-23.567 331.821-24.63 330.704L-24.688 330.645C-26.3 329.033-27.16 326.758-27.048 324.403L-22.706 214.383C-15.11 215.633-7.317 213.583-1.587 208.651 2.952 204.722 5.994 199.189 6.985 193.064L6.995 193.002 21.663 90.082C22.227 86.136 19.497 82.452 15.577 81.872L15.333 81.836H14.542C10.992 81.836 8.002 84.426 7.431 87.994L7.422 88.051-7.246 190.889C-7.651 193.491-9.032 196.014-11.03 197.77-14.872 201.089-21.02 201.279-25.004 198.185-27.777 196.014-29.373 192.789-29.373 189.344V51.041C-29.373 30.165-18.119 10.609 0 0M5.016-10.585-3.37-5.792C-23.541 6.012-36.072 27.786-36.074 51.035V189.344C-36.074 194.864-33.541 200.013-29.124 203.47-22.589 208.542-12.924 208.26-6.628 202.822-3.402 199.987-1.276 196.106-.619 191.876L14.05 89.037C14.107 88.723 14.343 88.537 14.542 88.537H14.723C14.922 88.621 15.073 88.832 15.03 89.136L.366 192.022C-.38 196.586-2.627 200.689-5.965 203.579-10.983 207.897-18.21 209.2-24.823 206.974L-29.064 205.545-33.742 324.112C-33.942 328.307-32.38 332.412-29.456 335.354-27.572 337.322-25.175 338.748-22.515 339.484-17.361 341.169-12.955 339.27-12.219 338.922-7.219 336.66-3.78 332.136-3.017 326.812L-3.011 326.764C-2.451 322.416-1.7 316.704-.849 311.083L-.835 310.984 .324 301.411C8.414 247.548 17.315 212.114 25.168 180.852 31.276 156.565 38.198 129.038 44.699 92.532 46.489 82.294 52.031 73.104 60.304 66.643L67.606 60.979ZM68.235 58.735V58.733ZM74.936 58.72V58.708ZM74.936 58.703V58.697ZM74.082 56.555 74.033 56.506C74.05 56.522 74.066 56.538 74.082 56.555M73.292 55.789C73.29 55.787 73.287 55.786 73.286 55.785 73.287 55.786 73.29 55.787 73.292 55.789M64.72-51.783C64.72-51.783 64.753-51.791 64.835-51.791L196.396-51.793C196.598-51.793 196.756-51.71 196.845-51.569V-37.292C196.845-37.05 196.751-36.897 196.708-36.866L75.284 56.941C75.089 57.069 74.986 57.079 74.848 57.079 74.724 57.079 74.542 57.025 74.397 56.877 74.22 56.6 74.003 56.348 73.749 56.127L8.248-18.741C8.165-18.833 8.13-19.019 8.158-19.228 8.172-19.336 8.33-19.453 8.423-19.513L64.674-51.758C64.7-51.774 64.716-51.782 64.72-51.783M196.396-58.493 64.835-58.492C63.492-58.492 62.295-58.159 61.18-57.476L4.944-25.241C3.016-24.056 1.799-22.234 1.516-20.113 1.227-17.949 1.865-15.818 3.265-14.261L68.847 60.701C68.985 60.906 69.144 61.098 69.324 61.273L69.479 61.428C70.87 62.924 72.822 63.779 74.848 63.779 76.408 63.779 77.863 63.315 79.174 62.4L79.302 62.304 200.769-31.535C202.494-32.83 203.546-34.993 203.546-37.292V-47.893L203.627-47.892V-51.262C203.627-55.317 200.451-58.493 196.396-58.493M-18.306 341.302C-22.781 341.302-26.967 339.517-30.077 336.278-33.151 333.013-34.785 328.708-34.655 324.18L-29.938 204.298-31.085 203.249C-34.931 199.727-37.137 194.687-37.137 189.42V51.111C-37.137 27.377-24.339 5.292-3.738-6.524L4.282-11.126 2.009-14.157C.692-15.913 .154-18.167 .533-20.341L.542-20.39C.925-22.799 2.422-24.952 4.544-26.148L60.76-58.37C62.073-59.113 63.438-59.478 64.916-59.478L196.395-59.475C200.967-59.475 204.686-55.755 204.686-51.183V-37.213C204.686-34.748 203.457-32.312 201.397-30.694L79.862 63.207C77.097 65.334 73.323 65.401 70.253 63.373L68.245 62.046 61.069 67.639C53.043 73.805 47.635 82.756 45.859 92.829 39.638 128.079 32.955 154.811 26.493 180.664L26.35 181.236C16.788 219.408 6.9 258.882-1.974 326.911-2.92 334.476-9.145 340.435-16.806 341.146H-16.815C-17.305 341.146-17.721 341.213-18.025 341.262-18.115 341.276-18.207 341.296-18.306 341.302M64.916-66.179C62.288-66.179 59.775-65.511 57.445-64.194L1.232-31.974C-2.628-29.797-5.365-25.866-6.072-21.466-6.543-18.737-6.225-15.939-5.2-13.41L-7.073-12.336C-29.75 .671-43.837 24.983-43.837 51.111V189.42C-43.837 196.024-41.273 202.371-36.753 207.074L-41.352 323.952C-41.534 330.302-39.254 336.306-34.933 340.895-30.526 345.487-24.623 348.002-18.29 348.002-17.741 348.002-17.292 347.931-16.965 347.878-16.897 347.867-16.831 347.855-16.766 347.847L-16.375 347.835C-5.519 346.915 3.334 338.473 4.673 327.76 13.494 260.134 23.334 220.851 32.85 182.862L32.993 182.289C39.484 156.324 46.195 129.475 52.458 93.993 53.943 85.573 58.457 78.096 65.169 72.939L68.724 70.168C73.769 72.486 79.529 71.917 83.954 68.513L205.525-25.416C209.196-28.294 211.387-32.703 211.387-37.213V-51.183C211.387-59.45 204.662-66.175 196.395-66.175Z" fill="#f9f4e5"/>
<path transform="matrix(1,0,0,-1,574.5604,656.9105)" d="M0 0C0-22.12-11.953-42.766-31.201-53.865L-37.178-57.28-95.623 9.545-91.121 13.038C-82.195 19.946-76.218 29.88-74.201 40.98-67.913 76.295-61.238 103.149-54.719 129.071-46.337 162.367-37.799 196.672-29.804 249.92L-28.564 259.469C-27.787 264.667-27.087 269.869-26.39 275.302-25.846 279.648-22.974 283.141-19.095 284.771-19.095 284.771-15.123 286.676-11.254 285.234-9.158 284.69-7.217 283.603-5.665 281.973-3.414 279.567-2.173 276.463-2.328 273.203L-6.83 159.107C-14.125 161.669-22.74 160.349-28.95 155.071-32.908 151.578-35.547 146.766-36.4 141.488L-51.069 38.65C-51.379 36.554-49.904 34.537-47.808 34.227H-47.264C-45.323 34.227-43.693 35.623-43.461 37.564L-28.792 140.325C-28.248 143.818-26.541 147-23.98 149.251-18.702 153.753-10.941 153.908-5.663 149.795-2.015 147.001 .002 142.81 .002 138.308ZM-37.483-70.71C-37.795-71.873-38.416-72.883-39.502-73.427L-39.505-73.426-95.701-105.636C-96.322-105.947-96.943-106.18-97.642-106.18L-229.121-106.179C-231.293-106.179-233.002-104.472-233.002-102.297V-88.327C-233.002-87.162-232.458-85.999-231.527-85.222L-109.979 8.613C-109.28 9.157-108.428 9.389-107.573 9.389-106.487 9.389-105.401 8.924-104.623 8.069L-104.389 7.836C-104.389 7.757-104.389 7.757-104.311 7.68-104.232 7.602-104.156 7.602-104.077 7.525L-38.414-67.528C-37.638-68.383-37.328-69.546-37.483-70.71M.619 154.606 5.278 272.972C5.512 278.405 3.571 283.528-.156 287.486-3.882 291.444-9.004 293.54-14.436 293.54-14.901 293.54-15.367 293.461-15.911 293.384H-16.068C-25.304 292.608-32.91 285.545-34.074 276.232-42.923 208.473-52.78 169.044-62.326 130.935-68.846 104.856-75.599 77.923-81.885 42.299-83.515 33.062-88.482 24.834-95.933 19.169L-101.211 15.056C-105.248 17.773-110.681 17.849-114.715 14.746L-236.186-79.094C-239.058-81.345-240.765-84.761-240.765-88.33V-102.3C-240.765-108.743-235.566-113.942-229.123-113.942H-97.644C-95.627-113.942-93.607-113.398-91.822-112.39L-35.626-80.18C-32.599-78.473-30.504-75.446-29.961-72.031-29.417-68.925-30.272-65.821-32.134-63.26L-27.323-60.544C-5.669-48.047 7.759-24.841 7.759-.002V138.307C7.759 144.594 5.197 150.414 .619 154.606" fill="#f9f4e5"/>
<path transform="matrix(1,0,0,-1,483.7985,647.8345)" d="M0 0 54.302-62.088 57.899-60.032C76.098-49.538 87.411-30.01 87.411-9.076L87.414 129.232C87.414 132.724 85.828 135.941 83.062 138.059 79.007 141.219 72.964 141.03 68.974 137.641 67.016 135.912 65.704 133.46 65.28 130.733L50.622 28.048C50.174 24.483 47.119 21.8 43.498 21.8H42.707L42.463 21.836C38.523 22.42 35.793 26.111 36.379 30.065L51.054 132.946C52.029 138.981 55.062 144.507 59.596 148.507L59.642 148.548C65.478 153.509 73.26 155.561 80.747 154.3L85.086 264.259C85.196 266.567 84.33 268.812 82.65 270.608 81.604 271.706 80.22 272.511 78.666 272.915L78.338 273.018C75.897 273.928 73.119 272.676 73.091 272.663L72.965 272.607C70.045 271.379 68.075 268.838 67.696 265.81 66.881 259.46 66.209 254.564 65.516 249.93L64.271 240.346C56.109 185.98 47.174 150.489 39.292 119.177 33.211 94.999 26.319 67.594 19.86 31.316 17.685 19.349 11.233 8.698 1.692 1.312ZM52.867-70.626-9.723 .939-2.413 6.609C5.822 12.983 11.388 22.178 13.265 32.503 19.763 69.001 26.686 96.527 32.794 120.812 40.638 151.971 49.527 187.282 57.64 241.308L58.884 250.889C59.572 255.485 60.239 260.346 61.049 266.652 61.725 272.055 65.184 276.579 70.304 278.757 71.138 279.141 75.718 281.062 80.512 279.357 83.211 278.626 85.633 277.193 87.523 275.207 90.471 272.056 91.976 268.072 91.781 263.968L87.101 145.368 82.822 146.87C76.467 149.102 69.085 147.763 64.006 143.462 60.653 140.494 58.405 136.392 57.674 131.907L43.01 29.101C42.974 28.855 43.123 28.598 43.327 28.501H43.498C43.696 28.501 43.94 28.602 43.974 28.885L43.984 28.962 58.653 131.722C59.326 136.047 61.425 139.928 64.57 142.691L64.608 142.724C71.072 148.238 80.557 148.506 87.159 143.361 91.571 139.983 94.115 134.826 94.115 129.232L94.112-9.076H90.762 94.112C94.112-32.398 81.514-54.15 61.235-65.843ZM-138.646-96.894C-138.813-97.049-138.89-97.263-138.89-97.403V-111.373C-138.89-111.696-138.681-111.904-138.359-111.904L-6.88-111.906C-6.889-111.906-6.793-111.888-6.514-111.753L49.793-79.479C49.839-79.431 49.903-79.326 49.966-79.159 49.96-79.029 49.925-78.92 49.867-78.857L49.826-78.81-15.546-4.09C-15.665-3.999-15.791-3.891-15.918-3.764-16.091-3.596-16.244-3.415-16.376-3.224-16.521-3.087-16.692-3.037-16.812-3.037-17.016-3.037-17.127-3.081-17.16-3.107ZM-6.88-118.607-138.359-118.605C-142.414-118.605-145.591-115.429-145.591-111.373V-97.403C-145.591-95.249-144.59-93.127-142.913-91.726L-142.812-91.645-21.265 2.189C-20.029 3.151-18.486 3.664-16.812 3.664-14.789 3.664-12.838 2.809-11.445 1.315L-11.014 .884C-11.001 .872-10.988 .859-10.975 .846L-10.277 .147V.065L54.852-74.378C56.251-75.935 56.888-78.066 56.6-80.229L56.571-80.445 56.515-80.655C55.919-82.872 54.641-84.536 52.816-85.47L-3.356-117.667-3.441-117.709C-4.212-118.095-5.407-118.607-6.88-118.607M-17.041 4.656C-18.777 4.656-20.49 4.107-21.911 3.014L-143.376-90.821C-145.421-92.424-146.653-94.891-146.653-97.406V-111.376C-146.653-115.948-142.933-119.668-138.361-119.668H-6.882C-5.448-119.668-4.004-119.281-2.707-118.549L53.469-86.35C55.613-85.14 57.109-82.988 57.492-80.581L57.5-80.529C57.869-78.426 57.307-76.217 55.918-74.306L53.708-71.267 61.791-66.703C82.37-54.826 95.17-32.74 95.17-9.078V129.231C95.17 134.575 93.021 139.486 89.118 143.059L87.971 144.109 92.692 264.028C92.885 268.521 91.278 272.809 88.167 276.113 85.131 279.337 80.926 281.113 76.326 281.113 76.168 281.113 75.872 281.07 75.56 281.025L75.086 280.958H74.841C67.182 280.252 60.956 274.293 60.012 266.74 51.114 198.602 41.237 159.175 31.685 121.045L31.538 120.455C25.076 94.607 18.394 67.879 12.177 32.64 10.393 22.536 4.952 13.582-3.144 7.426L-10.305 1.844-12.32 3.2C-13.764 4.172-15.412 4.656-17.041 4.656M-6.882-126.369H-138.361C-146.628-126.369-153.353-119.643-153.353-111.376V-97.406C-153.353-92.849-151.162-88.41-147.491-85.533L-26.002 8.321C-21.614 11.696-15.751 12.27-10.762 9.984L-7.231 12.736C-.449 17.892 4.088 25.366 5.578 33.805 11.836 69.276 18.548 96.12 25.037 122.08L25.185 122.672C34.691 160.618 44.519 199.854 53.365 267.59 54.703 278.292 63.556 286.735 74.413 287.647L74.612 287.659C75.118 287.732 75.691 287.814 76.326 287.814 82.793 287.814 88.731 285.29 93.046 280.706 97.406 276.075 99.658 270.054 99.387 263.752L94.787 146.888C99.367 142.149 101.871 135.939 101.871 129.231V-9.078C101.871-35.127 87.786-59.437 65.113-72.521L63.172-73.618C64.244-76.187 64.575-78.95 64.105-81.659 63.398-86.057 60.662-89.986 56.781-92.175L.606-124.373C-1.714-125.683-4.296-126.369-6.882-126.369" fill="#f9f4e5"/>
</g>
</g>
</svg>
